<?xml version="1.0" encoding="utf-8"?>
<!-- Generator: Adobe Illustrator 17.0.0, SVG Export Plug-In . SVG Version: 6.00 Build 0)  -->
<!DOCTYPE svg PUBLIC "-//W3C//DTD SVG 1.1//EN" "http://www.w3.org/Graphics/SVG/1.1/DTD/svg11.dtd">
<svg version="1.1" id="Layer_1" xmlns="http://www.w3.org/2000/svg" xmlns:xlink="http://www.w3.org/1999/xlink" x="0px" y="0px"
	 width="747.691px" height="294.166px" viewBox="0 0 747.691 294.166" enable-background="new 0 0 747.691 294.166"
	 xml:space="preserve">
<g>
	<path d="M17.69,45.979l0.165,4.766c4.573-3.625,8.781-5.438,12.622-5.438c4.756,0,7.134,2.467,7.134,7.401v20.296h-2.195V53.155
		c0-2.018-0.439-3.494-1.317-4.429c-0.878-0.934-2.25-1.401-4.116-1.401c-1.793,0-3.559,0.402-5.296,1.205
		c-1.738,0.804-3.943,2.122-6.613,3.953v20.521h-2.14V45.979H17.69z"/>
	<path d="M61.214,60.612H47.11c0.146,4.112,0.988,6.98,2.524,8.606s4.024,2.439,7.463,2.439c3.037,0,6.055-0.224,9.055-0.673
		l0.274,1.57c-2.195,0.748-5.397,1.122-9.604,1.122c-4.28,0-7.354-1.093-9.22-3.28c-1.866-2.187-2.799-5.859-2.799-11.017
		s0.887-8.793,2.662-10.905c1.774-2.111,4.747-3.168,8.918-3.168c6.988,0,10.537,2.654,10.646,7.961
		c0.073,2.467-0.357,4.309-1.29,5.522C64.809,60.005,63.299,60.612,61.214,60.612z M47.11,58.762h13.774
		c2.707,0,4.006-1.794,3.896-5.382c-0.037-2.093-0.723-3.625-2.058-4.598c-1.336-0.972-3.412-1.458-6.229-1.458
		c-3.439,0-5.854,0.841-7.244,2.523C47.86,51.529,47.146,54.501,47.11,58.762z"/>
	<path d="M75.79,48.502c1.774-2.13,4.82-3.196,9.137-3.196c4.316,0,7.362,1.065,9.137,3.196c1.774,2.13,2.662,5.794,2.662,10.989
		c0,5.196-0.878,8.859-2.634,10.989c-1.756,2.13-4.811,3.196-9.165,3.196c-4.354,0-7.409-1.065-9.165-3.196
		c-1.756-2.13-2.634-5.793-2.634-10.989C73.128,54.296,74.015,50.632,75.79,48.502z M92.363,49.959
		c-1.409-1.756-3.888-2.635-7.436-2.635c-3.549,0-6.019,0.878-7.409,2.635c-1.391,1.757-2.085,4.934-2.085,9.531
		c0,4.598,0.695,7.785,2.085,9.56c1.39,1.776,3.859,2.663,7.409,2.663c3.548,0,6.027-0.887,7.436-2.663
		c1.408-1.775,2.113-4.962,2.113-9.56C94.476,54.894,93.771,51.717,92.363,49.959z"/>
	<path d="M101.99,44.764l26.408,12.079c0.412,0.251,0.617,0.629,0.617,1.132v2.516c0,0.503-0.205,0.86-0.617,1.069L101.99,73.639
		v-2.705l20.24-9.059c0.524-0.252,1.346-0.629,2.467-1.132c1.122-0.503,1.962-0.881,2.523-1.132v-0.818l-5.046-2.328l-20.184-8.996
		V44.764z"/>
	<path d="M132.858,33.311h0.988c0.549,0,0.823,0.311,0.823,0.93v3.487c0,0.62-0.274,0.93-0.823,0.93h-0.988
		c-0.585,0-0.878-0.31-0.878-0.93v-3.487C131.98,33.622,132.273,33.311,132.858,33.311z M134.395,73.003h-2.14V44.992h2.14V73.003z"
		/>
	<path d="M144.635,45.979l0.219,4.766c4.061-3.625,7.903-5.438,11.525-5.438c3.841,0,6.072,1.794,6.695,5.382
		c4.061-3.588,7.884-5.382,11.47-5.382c4.572,0,6.859,2.467,6.859,7.401v20.296h-2.141V53.155c-0.036-3.887-1.829-5.831-5.378-5.831
		c-1.61,0-3.183,0.392-4.719,1.177s-3.512,2.112-5.927,3.98v0.225v20.296h-2.141V53.155c0-3.887-1.793-5.831-5.378-5.831
		c-1.574,0-3.138,0.392-4.692,1.177c-1.555,0.785-3.54,2.112-5.954,3.98v20.521h-2.14V45.979H144.635z"/>
</g>
<rect x="289" y="27.664" width="171" height="65"/>
<g>
	<path fill="#E8E8E8" d="M308.076,52.091v29.92h-6.426v-44.98h4.819l11.245,27.812V37.031h6.425v44.98h-4.568L308.076,52.091z"/>
	<path fill="#E8E8E8" d="M335.665,61.127v16.064h11.245v4.819h-17.671v-44.98h17.671v4.819h-11.245v14.458h8.032v4.819H335.665z"/>
	<path fill="#E8E8E8" d="M374.261,51.238v16.315c0,9.036-3.263,14.91-12.399,14.91c-9.212,0-12.4-5.748-12.4-14.91V51.238
		c0-9.162,3.188-14.659,12.4-14.659C370.998,36.579,374.261,42.202,374.261,51.238z M355.887,49.631V69.16
		c0,4.819,1.155,8.032,5.975,8.032s5.974-3.213,5.974-8.032V49.631c0-4.819-1.154-7.781-5.974-7.781S355.887,44.812,355.887,49.631z
		"/>
	<path fill="#E8E8E8" d="M395.561,37.031h6.426l-9.639,44.98h-6.426l-9.639-44.98h6.426l4.744,24.097l1.656,11.245l1.707-11.245
		L395.561,37.031z"/>
	<path fill="#E8E8E8" d="M411.688,37.031v44.98h-6.426v-44.98H411.688z"/>
	<path fill="#E8E8E8" d="M423.436,46.519v35.492h-6.426v-44.98h8.886l6.376,34.438l6.375-34.438h8.886v44.98h-6.426V46.519
		l-6.426,35.492h-4.819L423.436,46.519z"/>
</g>
<rect x="202.5" y="19.164" fill="#FFFFFF" stroke="#000000" stroke-miterlimit="10" width="70" height="71"/>
<g>
	<path d="M223.017,36.456l34.275,15.677c0.534,0.327,0.801,0.816,0.801,1.47v3.266c0,0.653-0.267,1.116-0.801,1.388l-34.275,15.678
		v-3.511l26.271-11.758c0.68-0.327,1.747-0.816,3.202-1.47s2.547-1.143,3.274-1.47v-1.062l-6.549-3.021l-26.198-11.676V36.456z"/>
</g>
<rect x="488" y="25.664" width="69" height="65"/>
<g>
	<path fill="#E8E8E8" d="M505.316,52.285v29.92h-6.426v-44.98h4.818l11.246,27.812V37.224h6.426v44.98h-4.568L505.316,52.285z"/>
	<path fill="#E8E8E8" d="M543.803,37.224h6.426l-9.639,44.98h-6.426l-9.639-44.98h6.426l4.744,24.097l1.656,11.245l1.707-11.245
		L543.803,37.224z"/>
</g>
<rect x="289" y="108.664" fill="#007F00" width="171" height="65"/>
<g>
	<path fill="#CCE5CC" d="M308.076,133.091v29.92h-6.426v-44.98h4.819l11.245,27.812v-27.812h6.425v44.98h-4.568L308.076,133.091z"/>
	<path fill="#CCE5CC" d="M335.665,142.127v16.064h11.245v4.819h-17.671v-44.98h17.671v4.819h-11.245v14.458h8.032v4.819H335.665z"/>
	<path fill="#CCE5CC" d="M374.261,132.238v16.315c0,9.036-3.263,14.91-12.399,14.91c-9.212,0-12.4-5.748-12.4-14.91v-16.315
		c0-9.162,3.188-14.659,12.4-14.659C370.998,117.579,374.261,123.202,374.261,132.238z M355.887,130.631v19.528
		c0,4.819,1.155,8.032,5.975,8.032s5.974-3.213,5.974-8.032v-19.528c0-4.819-1.154-7.781-5.974-7.781
		S355.887,125.812,355.887,130.631z"/>
	<path fill="#CCE5CC" d="M395.561,118.031h6.426l-9.639,44.98h-6.426l-9.639-44.98h6.426l4.744,24.097l1.656,11.245l1.707-11.245
		L395.561,118.031z"/>
	<path fill="#CCE5CC" d="M411.688,118.031v44.98h-6.426v-44.98H411.688z"/>
	<path fill="#CCE5CC" d="M423.436,127.519v35.492h-6.426v-44.98h8.886l6.376,34.438l6.375-34.438h8.886v44.98h-6.426v-35.492
		l-6.426,35.492h-4.819L423.436,127.519z"/>
</g>
<rect x="488" y="107.664" fill="#007F00" width="69" height="65"/>
<g>
	<path fill="#CCE5CC" d="M505.316,134.285v29.92h-6.426v-44.98h4.818l11.246,27.812v-27.812h6.426v44.98h-4.568L505.316,134.285z"/>
	<path fill="#CCE5CC" d="M543.803,119.224h6.426l-9.639,44.98h-6.426l-9.639-44.98h6.426l4.744,24.097l1.656,11.245l1.707-11.245
		L543.803,119.224z"/>
</g>
<g>
	<path fill="#007F00" d="M16.69,139.979l0.165,4.766c4.573-3.625,8.781-5.438,12.622-5.438c4.756,0,7.134,2.467,7.134,7.401v20.296
		h-2.195v-19.848c0-2.018-0.439-3.494-1.317-4.429c-0.878-0.934-2.25-1.401-4.116-1.401c-1.793,0-3.559,0.402-5.296,1.205
		c-1.738,0.804-3.943,2.122-6.613,3.953v20.521h-2.14v-27.024H16.69z"/>
	<path fill="#007F00" d="M60.214,154.612H46.11c0.146,4.112,0.988,6.98,2.524,8.606s4.024,2.439,7.463,2.439
		c3.037,0,6.055-0.224,9.055-0.673l0.274,1.57c-2.195,0.748-5.397,1.122-9.604,1.122c-4.28,0-7.354-1.093-9.22-3.28
		c-1.866-2.187-2.799-5.859-2.799-11.017s0.887-8.793,2.662-10.905c1.774-2.111,4.747-3.168,8.918-3.168
		c6.988,0,10.537,2.654,10.646,7.961c0.073,2.467-0.357,4.309-1.29,5.522C63.809,154.005,62.299,154.612,60.214,154.612z
		 M46.11,152.762h13.774c2.707,0,4.006-1.794,3.896-5.382c-0.037-2.093-0.723-3.625-2.058-4.598
		c-1.336-0.972-3.412-1.458-6.229-1.458c-3.439,0-5.854,0.841-7.244,2.523C46.86,145.529,46.146,148.501,46.11,152.762z"/>
	<path fill="#007F00" d="M74.79,142.502c1.774-2.13,4.82-3.196,9.137-3.196c4.316,0,7.362,1.065,9.137,3.196
		c1.774,2.13,2.662,5.794,2.662,10.989c0,5.196-0.878,8.859-2.634,10.989c-1.756,2.13-4.811,3.196-9.165,3.196
		c-4.354,0-7.409-1.065-9.165-3.196c-1.756-2.13-2.634-5.793-2.634-10.989C72.128,148.296,73.015,144.632,74.79,142.502z
		 M91.363,143.959c-1.409-1.756-3.888-2.635-7.436-2.635c-3.549,0-6.019,0.878-7.409,2.635c-1.391,1.757-2.085,4.934-2.085,9.531
		c0,4.598,0.695,7.785,2.085,9.56c1.39,1.776,3.859,2.663,7.409,2.663c3.548,0,6.027-0.887,7.436-2.663
		c1.408-1.775,2.113-4.962,2.113-9.56C93.476,148.894,92.771,145.717,91.363,143.959z"/>
	<path fill="#007F00" d="M100.99,138.764l26.408,12.079c0.412,0.251,0.617,0.629,0.617,1.132v2.516c0,0.503-0.205,0.86-0.617,1.069
		l-26.407,12.079v-2.705l20.24-9.059c0.524-0.252,1.346-0.629,2.467-1.132c1.122-0.503,1.962-0.881,2.523-1.132v-0.818l-5.046-2.328
		l-20.184-8.996V138.764z"/>
	<path fill="#007F00" d="M131.858,127.311h0.988c0.549,0,0.823,0.311,0.823,0.93v3.487c0,0.62-0.274,0.93-0.823,0.93h-0.988
		c-0.585,0-0.878-0.31-0.878-0.93v-3.487C130.98,127.622,131.273,127.311,131.858,127.311z M133.395,167.003h-2.14v-28.011h2.14
		V167.003z"/>
	<path fill="#007F00" d="M143.635,139.979l0.219,4.766c4.061-3.625,7.903-5.438,11.525-5.438c3.841,0,6.072,1.794,6.695,5.382
		c4.061-3.588,7.884-5.382,11.47-5.382c4.572,0,6.859,2.467,6.859,7.401v20.296h-2.141v-19.848
		c-0.036-3.887-1.829-5.831-5.378-5.831c-1.61,0-3.183,0.392-4.719,1.177s-3.512,2.112-5.927,3.98v0.225v20.296h-2.141v-19.848
		c0-3.887-1.793-5.831-5.378-5.831c-1.574,0-3.138,0.392-4.692,1.177c-1.555,0.785-3.54,2.112-5.954,3.98v20.521h-2.14v-27.024
		H143.635z"/>
</g>
<rect x="201.5" y="107.164" fill="#007F00" stroke="#000000" stroke-miterlimit="10" width="70" height="71"/>
<g>
	<path fill="#CCE5CC" d="M222.017,124.456l34.275,15.677c0.534,0.327,0.801,0.816,0.801,1.47v3.266c0,0.653-0.267,1.116-0.801,1.388
		l-34.275,15.678v-3.511l26.271-11.758c0.68-0.327,1.747-0.816,3.202-1.47s2.547-1.143,3.274-1.47v-1.062l-6.549-3.021
		l-26.198-11.676V124.456z"/>
</g>
<rect x="288" y="189.664" fill="#002B36" width="171" height="65"/>
<g>
	<path fill="#859900" d="M307.076,214.091v29.92h-6.426v-44.98h4.819l11.245,27.812v-27.812h6.425v44.98h-4.568L307.076,214.091z"/>
	<path fill="#859900" d="M334.665,223.127v16.064h11.245v4.819h-17.671v-44.98h17.671v4.819h-11.245v14.458h8.032v4.819H334.665z"/>
	<path fill="#859900" d="M373.261,213.238v16.315c0,9.036-3.263,14.91-12.399,14.91c-9.212,0-12.4-5.748-12.4-14.91v-16.315
		c0-9.161,3.188-14.658,12.4-14.658C369.998,198.58,373.261,204.202,373.261,213.238z M354.887,211.631v19.528
		c0,4.819,1.155,8.032,5.975,8.032s5.974-3.213,5.974-8.032v-19.528c0-4.819-1.154-7.781-5.974-7.781
		S354.887,206.812,354.887,211.631z"/>
	<path fill="#859900" d="M394.561,199.031h6.426l-9.639,44.98h-6.426l-9.639-44.98h6.426l4.744,24.097l1.656,11.245l1.707-11.245
		L394.561,199.031z"/>
	<path fill="#859900" d="M410.688,199.031v44.98h-6.426v-44.98H410.688z"/>
	<path fill="#859900" d="M422.436,208.519v35.492h-6.426v-44.98h8.886l6.376,34.438l6.375-34.438h8.886v44.98h-6.426v-35.492
		l-6.426,35.492h-4.819L422.436,208.519z"/>
</g>
<rect x="487" y="188.664" fill="#002B36" width="69" height="65"/>
<g>
	<path fill="#859900" d="M504.316,214.285v29.92h-6.426v-44.98h4.818l11.246,27.812v-27.812h6.426v44.98h-4.568L504.316,214.285z"/>
	<path fill="#859900" d="M542.803,199.224h6.426l-9.639,44.98h-6.426l-9.639-44.98h6.426l4.744,24.097l1.656,11.245l1.707-11.245
		L542.803,199.224z"/>
</g>
<g>
	<path fill="#859900" d="M16.69,216.979l0.165,4.766c4.573-3.625,8.781-5.438,12.622-5.438c4.756,0,7.134,2.467,7.134,7.4v20.296
		h-2.195v-19.848c0-2.018-0.439-3.494-1.317-4.429c-0.878-0.934-2.25-1.401-4.116-1.401c-1.793,0-3.559,0.401-5.296,1.205
		c-1.738,0.804-3.943,2.122-6.613,3.952v20.521h-2.14v-27.023H16.69z"/>
	<path fill="#859900" d="M60.214,231.612H46.11c0.146,4.112,0.988,6.98,2.524,8.606s4.024,2.438,7.463,2.438
		c3.037,0,6.055-0.224,9.055-0.673l0.274,1.57c-2.195,0.747-5.397,1.121-9.604,1.121c-4.28,0-7.354-1.093-9.22-3.279
		c-1.866-2.187-2.799-5.859-2.799-11.018s0.887-8.793,2.662-10.904c1.774-2.111,4.747-3.168,8.918-3.168
		c6.988,0,10.537,2.654,10.646,7.961c0.073,2.467-0.357,4.309-1.29,5.522C63.809,231.005,62.299,231.612,60.214,231.612z
		 M46.11,229.762h13.774c2.707,0,4.006-1.795,3.896-5.383c-0.037-2.093-0.723-3.625-2.058-4.598
		c-1.336-0.972-3.412-1.457-6.229-1.457c-3.439,0-5.854,0.841-7.244,2.522C46.86,222.529,46.146,225.501,46.11,229.762z"/>
	<path fill="#859900" d="M74.79,219.501c1.774-2.13,4.82-3.195,9.137-3.195c4.316,0,7.362,1.065,9.137,3.195
		c1.774,2.131,2.662,5.794,2.662,10.989s-0.878,8.858-2.634,10.989c-1.756,2.13-4.811,3.195-9.165,3.195
		c-4.354,0-7.409-1.065-9.165-3.195c-1.756-2.131-2.634-5.794-2.634-10.989S73.015,221.632,74.79,219.501z M91.363,220.959
		c-1.409-1.757-3.888-2.635-7.436-2.635c-3.549,0-6.019,0.878-7.409,2.635c-1.391,1.757-2.085,4.934-2.085,9.531
		s0.695,7.784,2.085,9.56c1.39,1.775,3.859,2.663,7.409,2.663c3.548,0,6.027-0.888,7.436-2.663c1.408-1.775,2.113-4.962,2.113-9.56
		S92.771,222.716,91.363,220.959z"/>
	<path fill="#859900" d="M100.99,215.763l26.408,12.079c0.412,0.251,0.617,0.629,0.617,1.132v2.517c0,0.503-0.205,0.86-0.617,1.069
		l-26.407,12.079v-2.705l20.24-9.06c0.524-0.252,1.346-0.629,2.467-1.132c1.122-0.504,1.962-0.881,2.523-1.133v-0.817l-5.046-2.328
		l-20.184-8.996V215.763z"/>
	<path fill="#859900" d="M131.858,204.311h0.988c0.549,0,0.823,0.311,0.823,0.93v3.487c0,0.62-0.274,0.93-0.823,0.93h-0.988
		c-0.585,0-0.878-0.31-0.878-0.93v-3.487C130.98,204.622,131.273,204.311,131.858,204.311z M133.395,244.002h-2.14v-28.011h2.14
		V244.002z"/>
	<path fill="#859900" d="M143.635,216.979l0.219,4.766c4.061-3.625,7.903-5.438,11.525-5.438c3.841,0,6.072,1.794,6.695,5.382
		c4.061-3.588,7.884-5.382,11.47-5.382c4.572,0,6.859,2.467,6.859,7.4v20.296h-2.141v-19.848c-0.036-3.887-1.829-5.83-5.378-5.83
		c-1.61,0-3.183,0.392-4.719,1.177s-3.512,2.112-5.927,3.98v0.225v20.296h-2.141v-19.848c0-3.887-1.793-5.83-5.378-5.83
		c-1.574,0-3.138,0.392-4.692,1.177c-1.555,0.785-3.54,2.112-5.954,3.98v20.521h-2.14v-27.023H143.635z"/>
</g>
<rect x="201.5" y="190.164" fill="#002B36" stroke="#000000" stroke-miterlimit="10" width="70" height="71"/>
<g>
	<path fill="#859900" d="M222.017,207.456l34.275,15.678c0.534,0.326,0.801,0.816,0.801,1.47v3.266c0,0.653-0.267,1.116-0.801,1.389
		l-34.275,15.678v-3.512l26.271-11.758c0.68-0.327,1.747-0.816,3.202-1.47s2.547-1.144,3.274-1.47v-1.062l-6.549-3.021
		l-26.198-11.676V207.456z"/>
</g>
<text transform="matrix(1 0 0 1 575.907 60.1636)" font-family="'Oswald-Light'" font-size="21">Black &amp; Grey</text>
<text transform="matrix(1 0 0 1 575.907 146.1633)" font-family="'Oswald-Light'" font-size="21">Vim-green &amp; tint</text>
<text transform="matrix(1 0 0 1 575.907 222.1636)" font-family="'Oswald-Light'" font-size="21">Solarized Dark</text>
</svg>
