<?xml version="1.0" encoding="utf-8"?>
<!-- Generator: Adobe Illustrator 17.0.0, SVG Export Plug-In . SVG Version: 6.00 Build 0)  -->
<!DOCTYPE svg PUBLIC "-//W3C//DTD SVG 1.1//EN" "http://www.w3.org/Graphics/SVG/1.1/DTD/svg11.dtd">
<svg version="1.1" id="Layer_1" xmlns="http://www.w3.org/2000/svg" xmlns:xlink="http://www.w3.org/1999/xlink" x="0px" y="0px"
	 width="1038.156px" height="294.166px" viewBox="0 0 1038.156 294.166" enable-background="new 0 0 1038.156 294.166"
	 xml:space="preserve">
<g>
	<path d="M308.155,45.979l0.165,4.766c4.573-3.625,8.781-5.438,12.622-5.438c4.756,0,7.134,2.467,7.134,7.401v20.296h-2.195V53.155
		c0-2.018-0.439-3.494-1.317-4.429c-0.878-0.934-2.25-1.401-4.116-1.401c-1.793,0-3.559,0.402-5.296,1.205
		c-1.738,0.804-3.943,2.122-6.613,3.953v20.521h-2.14V45.979H308.155z"/>
	<path d="M351.68,60.612h-14.104c0.146,4.112,0.988,6.98,2.524,8.606s4.024,2.439,7.463,2.439c3.037,0,6.055-0.224,9.055-0.673
		l0.274,1.57c-2.195,0.748-5.397,1.122-9.604,1.122c-4.28,0-7.354-1.093-9.22-3.28c-1.866-2.187-2.799-5.859-2.799-11.017
		s0.887-8.793,2.662-10.905c1.774-2.111,4.747-3.168,8.918-3.168c6.988,0,10.537,2.654,10.646,7.961
		c0.073,2.467-0.357,4.309-1.29,5.522C355.274,60.005,353.765,60.612,351.68,60.612z M337.576,58.762h13.774
		c2.707,0,4.006-1.794,3.896-5.382c-0.037-2.093-0.723-3.625-2.058-4.598c-1.336-0.972-3.412-1.458-6.229-1.458
		c-3.439,0-5.854,0.841-7.244,2.523C338.325,51.529,337.612,54.501,337.576,58.762z"/>
	<path d="M366.255,48.502c1.774-2.13,4.82-3.196,9.137-3.196c4.316,0,7.362,1.065,9.137,3.196c1.774,2.13,2.662,5.794,2.662,10.989
		c0,5.196-0.878,8.859-2.634,10.989c-1.756,2.13-4.811,3.196-9.165,3.196c-4.354,0-7.409-1.065-9.165-3.196
		c-1.756-2.13-2.634-5.793-2.634-10.989C363.594,54.296,364.48,50.632,366.255,48.502z M382.829,49.959
		c-1.409-1.756-3.888-2.635-7.436-2.635c-3.549,0-6.019,0.878-7.409,2.635c-1.391,1.757-2.085,4.934-2.085,9.531
		c0,4.598,0.695,7.785,2.085,9.56c1.39,1.776,3.859,2.663,7.409,2.663c3.548,0,6.027-0.887,7.436-2.663
		c1.408-1.775,2.113-4.962,2.113-9.56C384.941,54.894,384.237,51.717,382.829,49.959z"/>
	<path d="M392.455,44.764l26.408,12.079c0.412,0.251,0.617,0.629,0.617,1.132v2.516c0,0.503-0.205,0.86-0.617,1.069l-26.407,12.079
		v-2.705l20.24-9.059c0.524-0.252,1.346-0.629,2.467-1.132c1.122-0.503,1.962-0.881,2.523-1.132v-0.818l-5.046-2.328l-20.184-8.996
		V44.764z"/>
	<path d="M423.324,33.311h0.988c0.549,0,0.823,0.311,0.823,0.93v3.487c0,0.62-0.274,0.93-0.823,0.93h-0.988
		c-0.585,0-0.878-0.31-0.878-0.93v-3.487C422.446,33.622,422.738,33.311,423.324,33.311z M424.86,73.003h-2.14V44.992h2.14V73.003z"
		/>
	<path d="M435.1,45.979l0.219,4.766c4.061-3.625,7.903-5.438,11.525-5.438c3.841,0,6.072,1.794,6.695,5.382
		c4.061-3.588,7.884-5.382,11.47-5.382c4.572,0,6.859,2.467,6.859,7.401v20.296h-2.141V53.155c-0.036-3.887-1.829-5.831-5.378-5.831
		c-1.61,0-3.183,0.392-4.719,1.177s-3.512,2.112-5.927,3.98v0.225v20.296h-2.141V53.155c0-3.887-1.793-5.831-5.378-5.831
		c-1.574,0-3.138,0.392-4.692,1.177c-1.555,0.785-3.54,2.112-5.954,3.98v20.521h-2.14V45.979H435.1z"/>
</g>
<rect x="579.465" y="27.664" width="171" height="65"/>
<g>
	<path fill="#E8E8E8" d="M598.541,52.091v29.92h-6.426v-44.98h4.819l11.245,27.812V37.031h6.425v44.98h-4.568L598.541,52.091z"/>
	<path fill="#E8E8E8" d="M626.13,61.127v16.064h11.245v4.819h-17.671v-44.98h17.671v4.819H626.13v14.458h8.032v4.819H626.13z"/>
	<path fill="#E8E8E8" d="M664.726,51.238v16.315c0,9.036-3.263,14.91-12.399,14.91c-9.212,0-12.4-5.748-12.4-14.91V51.238
		c0-9.162,3.188-14.659,12.4-14.659C661.463,36.579,664.726,42.202,664.726,51.238z M646.352,49.631V69.16
		c0,4.819,1.155,8.032,5.975,8.032s5.974-3.213,5.974-8.032V49.631c0-4.819-1.154-7.781-5.974-7.781S646.352,44.812,646.352,49.631z
		"/>
	<path fill="#E8E8E8" d="M686.026,37.031h6.426l-9.639,44.98h-6.426l-9.639-44.98h6.426l4.744,24.097l1.656,11.245l1.707-11.245
		L686.026,37.031z"/>
	<path fill="#E8E8E8" d="M702.153,37.031v44.98h-6.426v-44.98H702.153z"/>
	<path fill="#E8E8E8" d="M713.901,46.519v35.492h-6.426v-44.98h8.886l6.376,34.438l6.375-34.438h8.886v44.98h-6.426V46.519
		l-6.426,35.492h-4.819L713.901,46.519z"/>
</g>
<rect x="492.965" y="19.164" fill="#FFFFFF" stroke="#000000" stroke-miterlimit="10" width="70" height="71"/>
<g>
	<path d="M513.482,36.456l34.275,15.677c0.534,0.327,0.801,0.816,0.801,1.47v3.266c0,0.653-0.267,1.116-0.801,1.388l-34.275,15.678
		v-3.511l26.271-11.758c0.68-0.327,1.747-0.816,3.202-1.47s2.547-1.143,3.274-1.47v-1.062l-6.549-3.021l-26.198-11.676V36.456z"/>
</g>
<rect x="778.465" y="25.664" width="69" height="65"/>
<g>
	<path fill="#E8E8E8" d="M795.782,52.285v29.92h-6.426v-44.98h4.818l11.246,27.812V37.224h6.426v44.98h-4.568L795.782,52.285z"/>
	<path fill="#E8E8E8" d="M834.268,37.224h6.426l-9.639,44.98h-6.426l-9.639-44.98h6.426l4.744,24.097l1.656,11.245l1.707-11.245
		L834.268,37.224z"/>
</g>
<rect x="579.465" y="108.664" fill="#007F00" width="171" height="65"/>
<g>
	<path fill="#CCE5CC" d="M598.541,133.091v29.92h-6.426v-44.98h4.819l11.245,27.812v-27.812h6.425v44.98h-4.568L598.541,133.091z"/>
	<path fill="#CCE5CC" d="M626.13,142.127v16.064h11.245v4.819h-17.671v-44.98h17.671v4.819H626.13v14.458h8.032v4.819H626.13z"/>
	<path fill="#CCE5CC" d="M664.726,132.238v16.315c0,9.036-3.263,14.91-12.399,14.91c-9.212,0-12.4-5.748-12.4-14.91v-16.315
		c0-9.162,3.188-14.659,12.4-14.659C661.463,117.579,664.726,123.202,664.726,132.238z M646.352,130.631v19.528
		c0,4.819,1.155,8.032,5.975,8.032s5.974-3.213,5.974-8.032v-19.528c0-4.819-1.154-7.781-5.974-7.781
		S646.352,125.812,646.352,130.631z"/>
	<path fill="#CCE5CC" d="M686.026,118.031h6.426l-9.639,44.98h-6.426l-9.639-44.98h6.426l4.744,24.097l1.656,11.245l1.707-11.245
		L686.026,118.031z"/>
	<path fill="#CCE5CC" d="M702.153,118.031v44.98h-6.426v-44.98H702.153z"/>
	<path fill="#CCE5CC" d="M713.901,127.519v35.492h-6.426v-44.98h8.886l6.376,34.438l6.375-34.438h8.886v44.98h-6.426v-35.492
		l-6.426,35.492h-4.819L713.901,127.519z"/>
</g>
<rect x="778.465" y="107.664" fill="#007F00" width="69" height="65"/>
<g>
	<path fill="#CCE5CC" d="M795.782,134.285v29.92h-6.426v-44.98h4.818l11.246,27.812v-27.812h6.426v44.98h-4.568L795.782,134.285z"/>
	<path fill="#CCE5CC" d="M834.268,119.224h6.426l-9.639,44.98h-6.426l-9.639-44.98h6.426l4.744,24.097l1.656,11.245l1.707-11.245
		L834.268,119.224z"/>
</g>
<g>
	<path fill="#007F00" d="M307.155,139.979l0.165,4.766c4.573-3.625,8.781-5.438,12.622-5.438c4.756,0,7.134,2.467,7.134,7.401
		v20.296h-2.195v-19.848c0-2.018-0.439-3.494-1.317-4.429c-0.878-0.934-2.25-1.401-4.116-1.401c-1.793,0-3.559,0.402-5.296,1.205
		c-1.738,0.804-3.943,2.122-6.613,3.953v20.521h-2.14v-27.024H307.155z"/>
	<path fill="#007F00" d="M350.68,154.612h-14.104c0.146,4.112,0.988,6.98,2.524,8.606s4.024,2.439,7.463,2.439
		c3.037,0,6.055-0.224,9.055-0.673l0.274,1.57c-2.195,0.748-5.397,1.122-9.604,1.122c-4.28,0-7.354-1.093-9.22-3.28
		c-1.866-2.187-2.799-5.859-2.799-11.017s0.887-8.793,2.662-10.905c1.774-2.111,4.747-3.168,8.918-3.168
		c6.988,0,10.537,2.654,10.646,7.961c0.073,2.467-0.357,4.309-1.29,5.522C354.274,154.005,352.765,154.612,350.68,154.612z
		 M336.576,152.762h13.774c2.707,0,4.006-1.794,3.896-5.382c-0.037-2.093-0.723-3.625-2.058-4.598
		c-1.336-0.972-3.412-1.458-6.229-1.458c-3.439,0-5.854,0.841-7.244,2.523C337.325,145.529,336.612,148.501,336.576,152.762z"/>
	<path fill="#007F00" d="M365.255,142.502c1.774-2.13,4.82-3.196,9.137-3.196c4.316,0,7.362,1.065,9.137,3.196
		c1.774,2.13,2.662,5.794,2.662,10.989c0,5.196-0.878,8.859-2.634,10.989c-1.756,2.13-4.811,3.196-9.165,3.196
		c-4.354,0-7.409-1.065-9.165-3.196c-1.756-2.13-2.634-5.793-2.634-10.989C362.594,148.296,363.48,144.632,365.255,142.502z
		 M381.829,143.959c-1.409-1.756-3.888-2.635-7.436-2.635c-3.549,0-6.019,0.878-7.409,2.635c-1.391,1.757-2.085,4.934-2.085,9.531
		c0,4.598,0.695,7.785,2.085,9.56c1.39,1.776,3.859,2.663,7.409,2.663c3.548,0,6.027-0.887,7.436-2.663
		c1.408-1.775,2.113-4.962,2.113-9.56C383.941,148.894,383.237,145.717,381.829,143.959z"/>
	<path fill="#007F00" d="M391.455,138.764l26.408,12.079c0.412,0.251,0.617,0.629,0.617,1.132v2.516c0,0.503-0.205,0.86-0.617,1.069
		l-26.407,12.079v-2.705l20.24-9.059c0.524-0.252,1.346-0.629,2.467-1.132c1.122-0.503,1.962-0.881,2.523-1.132v-0.818l-5.046-2.328
		l-20.184-8.996V138.764z"/>
	<path fill="#007F00" d="M422.324,127.311h0.988c0.549,0,0.823,0.311,0.823,0.93v3.487c0,0.62-0.274,0.93-0.823,0.93h-0.988
		c-0.585,0-0.878-0.31-0.878-0.93v-3.487C421.446,127.622,421.738,127.311,422.324,127.311z M423.86,167.003h-2.14v-28.011h2.14
		V167.003z"/>
	<path fill="#007F00" d="M434.1,139.979l0.219,4.766c4.061-3.625,7.903-5.438,11.525-5.438c3.841,0,6.072,1.794,6.695,5.382
		c4.061-3.588,7.884-5.382,11.47-5.382c4.572,0,6.859,2.467,6.859,7.401v20.296h-2.141v-19.848
		c-0.036-3.887-1.829-5.831-5.378-5.831c-1.61,0-3.183,0.392-4.719,1.177s-3.512,2.112-5.927,3.98v0.225v20.296h-2.141v-19.848
		c0-3.887-1.793-5.831-5.378-5.831c-1.574,0-3.138,0.392-4.692,1.177c-1.555,0.785-3.54,2.112-5.954,3.98v20.521h-2.14v-27.024
		H434.1z"/>
</g>
<rect x="491.965" y="107.164" fill="#007F00" stroke="#000000" stroke-miterlimit="10" width="70" height="71"/>
<g>
	<path fill="#CCE5CC" d="M512.482,124.456l34.275,15.677c0.534,0.327,0.801,0.816,0.801,1.47v3.266c0,0.653-0.267,1.116-0.801,1.388
		l-34.275,15.678v-3.511l26.271-11.758c0.68-0.327,1.747-0.816,3.202-1.47s2.547-1.143,3.274-1.47v-1.062l-6.549-3.021
		l-26.198-11.676V124.456z"/>
</g>
<rect x="578.465" y="189.664" fill="#002B36" width="171" height="65"/>
<g>
	<path fill="#859900" d="M597.541,214.091v29.92h-6.426v-44.98h4.819l11.245,27.812v-27.812h6.425v44.98h-4.568L597.541,214.091z"/>
	<path fill="#859900" d="M625.13,223.127v16.064h11.245v4.819h-17.671v-44.98h17.671v4.819H625.13v14.458h8.032v4.819H625.13z"/>
	<path fill="#859900" d="M663.726,213.238v16.315c0,9.036-3.263,14.91-12.399,14.91c-9.212,0-12.4-5.748-12.4-14.91v-16.315
		c0-9.161,3.188-14.658,12.4-14.658C660.463,198.58,663.726,204.202,663.726,213.238z M645.352,211.631v19.528
		c0,4.819,1.155,8.032,5.975,8.032s5.974-3.213,5.974-8.032v-19.528c0-4.819-1.154-7.781-5.974-7.781
		S645.352,206.812,645.352,211.631z"/>
	<path fill="#859900" d="M685.026,199.031h6.426l-9.639,44.98h-6.426l-9.639-44.98h6.426l4.744,24.097l1.656,11.245l1.707-11.245
		L685.026,199.031z"/>
	<path fill="#859900" d="M701.153,199.031v44.98h-6.426v-44.98H701.153z"/>
	<path fill="#859900" d="M712.901,208.519v35.492h-6.426v-44.98h8.886l6.376,34.438l6.375-34.438h8.886v44.98h-6.426v-35.492
		l-6.426,35.492h-4.819L712.901,208.519z"/>
</g>
<rect x="777.465" y="188.664" fill="#002B36" width="69" height="65"/>
<g>
	<path fill="#859900" d="M794.782,214.285v29.92h-6.426v-44.98h4.818l11.246,27.812v-27.812h6.426v44.98h-4.568L794.782,214.285z"/>
	<path fill="#859900" d="M833.268,199.224h6.426l-9.639,44.98h-6.426l-9.639-44.98h6.426l4.744,24.097l1.656,11.245l1.707-11.245
		L833.268,199.224z"/>
</g>
<g>
	<path fill="#859900" d="M307.155,216.979l0.165,4.766c4.573-3.625,8.781-5.438,12.622-5.438c4.756,0,7.134,2.467,7.134,7.4v20.296
		h-2.195v-19.848c0-2.018-0.439-3.494-1.317-4.429c-0.878-0.934-2.25-1.401-4.116-1.401c-1.793,0-3.559,0.401-5.296,1.205
		c-1.738,0.804-3.943,2.122-6.613,3.952v20.521h-2.14v-27.023H307.155z"/>
	<path fill="#859900" d="M350.68,231.612h-14.104c0.146,4.112,0.988,6.98,2.524,8.606s4.024,2.438,7.463,2.438
		c3.037,0,6.055-0.224,9.055-0.673l0.274,1.57c-2.195,0.747-5.397,1.121-9.604,1.121c-4.28,0-7.354-1.093-9.22-3.279
		c-1.866-2.187-2.799-5.859-2.799-11.018s0.887-8.793,2.662-10.904c1.774-2.111,4.747-3.168,8.918-3.168
		c6.988,0,10.537,2.654,10.646,7.961c0.073,2.467-0.357,4.309-1.29,5.522C354.274,231.005,352.765,231.612,350.68,231.612z
		 M336.576,229.762h13.774c2.707,0,4.006-1.795,3.896-5.383c-0.037-2.093-0.723-3.625-2.058-4.598
		c-1.336-0.972-3.412-1.457-6.229-1.457c-3.439,0-5.854,0.841-7.244,2.522C337.325,222.529,336.612,225.501,336.576,229.762z"/>
	<path fill="#859900" d="M365.255,219.501c1.774-2.13,4.82-3.195,9.137-3.195c4.316,0,7.362,1.065,9.137,3.195
		c1.774,2.131,2.662,5.794,2.662,10.989s-0.878,8.858-2.634,10.989c-1.756,2.13-4.811,3.195-9.165,3.195
		c-4.354,0-7.409-1.065-9.165-3.195c-1.756-2.131-2.634-5.794-2.634-10.989S363.48,221.632,365.255,219.501z M381.829,220.959
		c-1.409-1.757-3.888-2.635-7.436-2.635c-3.549,0-6.019,0.878-7.409,2.635c-1.391,1.757-2.085,4.934-2.085,9.531
		s0.695,7.784,2.085,9.56c1.39,1.775,3.859,2.663,7.409,2.663c3.548,0,6.027-0.888,7.436-2.663c1.408-1.775,2.113-4.962,2.113-9.56
		S383.237,222.716,381.829,220.959z"/>
	<path fill="#859900" d="M391.455,215.763l26.408,12.079c0.412,0.251,0.617,0.629,0.617,1.132v2.517c0,0.503-0.205,0.86-0.617,1.069
		l-26.407,12.079v-2.705l20.24-9.06c0.524-0.252,1.346-0.629,2.467-1.132c1.122-0.504,1.962-0.881,2.523-1.133v-0.817l-5.046-2.328
		l-20.184-8.996V215.763z"/>
	<path fill="#859900" d="M422.324,204.311h0.988c0.549,0,0.823,0.311,0.823,0.93v3.487c0,0.62-0.274,0.93-0.823,0.93h-0.988
		c-0.585,0-0.878-0.31-0.878-0.93v-3.487C421.446,204.622,421.738,204.311,422.324,204.311z M423.86,244.002h-2.14v-28.011h2.14
		V244.002z"/>
	<path fill="#859900" d="M434.1,216.979l0.219,4.766c4.061-3.625,7.903-5.438,11.525-5.438c3.841,0,6.072,1.794,6.695,5.382
		c4.061-3.588,7.884-5.382,11.47-5.382c4.572,0,6.859,2.467,6.859,7.4v20.296h-2.141v-19.848c-0.036-3.887-1.829-5.83-5.378-5.83
		c-1.61,0-3.183,0.392-4.719,1.177s-3.512,2.112-5.927,3.98v0.225v20.296h-2.141v-19.848c0-3.887-1.793-5.83-5.378-5.83
		c-1.574,0-3.138,0.392-4.692,1.177c-1.555,0.785-3.54,2.112-5.954,3.98v20.521h-2.14v-27.023H434.1z"/>
</g>
<rect x="491.965" y="190.164" fill="#002B36" stroke="#000000" stroke-miterlimit="10" width="70" height="71"/>
<g>
	<path fill="#859900" d="M512.482,207.456l34.275,15.678c0.534,0.326,0.801,0.816,0.801,1.47v3.266c0,0.653-0.267,1.116-0.801,1.389
		l-34.275,15.678v-3.512l26.271-11.758c0.68-0.327,1.747-0.816,3.202-1.47s2.547-1.144,3.274-1.47v-1.062l-6.549-3.021
		l-26.198-11.676V207.456z"/>
</g>
<g>
	<path d="M867.87,60.164V42.517h3.794c3.148,0,3.988,2.266,3.988,4.481c0,1.343-0.646,3.025-1.906,3.599
		c1.753,0.708,2.266,2.81,2.266,4.307c0,2.799-0.595,5.26-4.04,5.26H867.87z M869.428,50.094h2.502c1.579,0,2.051-1.487,2.051-3.066
		c0-1.815-0.563-3.322-2.522-3.322h-2.03V50.094z M869.428,58.974h2.789c1.835,0,2.235-1.897,2.235-4.071
		c0-1.917-0.369-3.609-2.235-3.609h-2.789V58.974z"/>
	<path d="M878.472,60.164V42.517h1.538v17.647H878.472z"/>
	<path d="M887.445,60.164l-0.195-1.487c-0.697,1.22-1.795,1.764-2.594,1.764c-1.189,0-2.431-1.015-2.431-2.728
		c0-1.589,0.071-3.076,4.911-5.065v-0.103c-0.01-3.599-0.758-3.907-1.507-3.907c-0.604,0-1.446,0.236-1.569,2.338v0.072h-1.6
		c0.164-2.143,1.323-3.445,3.117-3.445c2.605,0,3.117,2.133,3.117,3.825v5.906c0,1.446,0.186,2.83,0.186,2.83H887.445z
		 M887.136,57.662v-4.327c-2.122,1.466-3.363,2.41-3.363,4.091c0,1.282,0.667,1.733,1.241,1.733
		C885.793,59.159,886.685,58.543,887.136,57.662z"/>
	<path d="M891.167,54.339v-0.636c0-2.861,0-6.101,3.353-6.101c2.451,0,2.984,1.969,3.107,4.184c0,0.041,0.01,0.072,0.01,0.113
		h-1.537v-0.092c-0.082-2.246-0.441-3.168-1.58-3.168c-1.609,0-1.814,1.436-1.814,5.065v0.636c0,3.691,0.297,5.065,1.814,5.065
		c1.098,0,1.477-0.923,1.58-3.271v-0.103h1.548v0.072c-0.103,2.379-0.595,4.337-3.128,4.337
		C891.167,60.44,891.167,57.426,891.167,54.339z"/>
	<path d="M899.841,60.164V42.517h1.538v11.187l3.835-5.824h1.732l-2.942,4.655l2.923,7.629h-1.61l-2.409-6.696l-1.528,1.876v4.819
		H899.841z"/>
	<path d="M922.174,58.913v1.405c-0.062,0-0.134-0.01-0.194-0.01c-1.036-0.062-2.021-0.636-2.779-1.518
		c-1.046,0.984-2.328,1.641-3.794,1.641c-2.625,0-3.753-1.477-3.753-3.322c0-1.805,1.025-4.122,2.851-5.599
		c-1.364-2.256-2.112-4.02-2.112-5.394c0-2.266,1.395-3.845,3.619-3.845c2.236,0,3.518,1.374,3.518,3.333
		c0,1.774-1.066,4.04-3.466,6.183l3.292,5.055c0.912-1.21,1.527-2.769,1.527-4.399h1.312c0,1.466-0.77,3.661-2.112,5.383
		C920.75,58.564,921.498,58.913,922.174,58.913z M918.494,57.815l-3.374-5.178c-1.138,1.056-2.03,2.861-2.03,4.317
		c0,1.261,0.666,2.246,2.399,2.246C916.484,59.2,917.57,58.677,918.494,57.815z M915.489,50.658
		c1.548-1.487,2.563-3.435,2.563-5.014c0-1.23-0.595-2.123-2-2.123c-1.619,0-2.102,1.62-2.102,2.656
		C913.951,47.397,914.361,48.761,915.489,50.658z"/>
	<path d="M927.044,55.231v-7.485c0-2.82,0.924-5.476,4.676-5.476c3.538,0,4.235,2.748,4.256,5.886v0.123h-1.559v-0.133
		c0-2.297-0.133-4.625-2.717-4.625c-2.379,0-3.098,1.743-3.098,3.568v8.818c0,1.641,0.596,3.281,3.046,3.281
		c2.276,0,2.769-1.733,2.769-3.281v-2.984h-2.164v-1.179h3.723v8.418h-0.688l-0.461-1.723c-0.472,1.23-1.784,2-3.199,2
		C927.281,60.44,927.044,56.872,927.044,55.231z"/>
	<path d="M938.509,60.164V47.879h1.538v1.733c0.41-1.384,1.661-1.907,2.584-1.928h0.03v1.548c0,0-0.143-0.041-0.266-0.041
		c-1.18,0-2.349,0.359-2.349,1.805v9.167H938.509z"/>
	<path d="M943.892,54.503l0.011-1.712c0.03-4.378,1.436-5.188,3.384-5.188c2.225,0,3.097,1.548,3.097,4.86
		c0,0.502,0,0.769-0.021,1.261h-4.922v1.876c0,3.312,0.688,3.804,1.836,3.804c0.789,0,1.609-0.574,1.63-2.922V56.4h1.436v0.062
		c-0.185,2.112-0.749,3.979-3.046,3.979C944.785,60.44,943.851,59.138,943.892,54.503z M945.451,52.965h3.404v-0.021
		c-0.03-1.876,0.205-4.307-1.496-4.307c-1.897,0-1.908,1.487-1.908,4.296V52.965z"/>
	<path d="M952.403,63.23v-1.261c1.671-0.113,2.368-0.554,2.368-1.333c0-0.349-0.03-0.943-0.112-1.456l-2.666-11.29h1.661
		l2.03,10.562l1.989-10.572h1.661l-3.076,13.135c-0.431,1.661-1.712,2.153-3.825,2.215H952.403z"/>
</g>
<g>
	<path d="M870.402,146.163l-3.793-17.647h1.682l3.127,15.801l2.994-15.801h1.682l-3.65,17.647H870.402z"/>
	<path d="M877.683,131.069v-1.835h1.538v1.835H877.683z M877.683,146.163v-12.284h1.538v12.284H877.683z"/>
	<path d="M881.712,146.163v-12.284h1.549v1.138c0.84-0.995,1.855-1.415,2.799-1.415c0.83,0,1.773,0.574,2.123,1.395
		c0.861-0.974,1.979-1.395,2.707-1.395c1.22,0,2.42,0.954,2.42,2.297v10.264h-1.539v-9.946c0-1.077-0.625-1.477-1.332-1.477
		c-0.615,0-1.405,0.379-2.021,0.995v10.428h-1.538v-9.957c0-1.077-0.625-1.466-1.374-1.466c-0.697,0-1.589,0.472-2.256,1.22v10.203
		H881.712z"/>
	<path d="M895.841,141.569v-1.179h3.21v1.179H895.841z"/>
	<path d="M909.376,133.643l0.164-0.031l-0.205,1.518c-0.543,0.103-1.107,0.523-1.507,0.974c0.235,0.656,0.39,1.302,0.39,1.856
		c0,2.399-0.994,4.532-3.568,4.532c-0.564,0-1.18-0.123-1.477-0.246c-0.236,0.451-0.707,1.21-0.707,1.764
		c0,0.4,0.41,0.4,3.353,0.943c1.487,0.277,2.901,0.954,2.901,2.543c0,2.481-2.942,2.697-4.184,2.697
		c-0.943,0-4.143,0.051-4.143-1.569c0-1.497,1.312-2.563,2.42-3.127c-0.112-0.021-1.764-0.441-1.764-0.872
		c0-0.82,1.17-2.338,1.467-2.748c-1.025-0.933-1.436-2.471-1.436-3.845c0-1.907,0.934-4.419,3.527-4.419
		c1.426,0,2.174,0.79,2.902,1.907C907.9,134.843,908.496,133.858,909.376,133.643z M905.644,146.04l-2.193-0.41
		c-0.615,0.451-1.436,1.712-1.436,2.492c0,1.025,1.559,0.974,2.543,0.974c0.697,0,2.686,0.021,2.686-1.384
		C907.244,146.727,906.792,146.255,905.644,146.04z M904.66,141.364c1.785,0,2-2.133,2-3.158c0-0.954-0.205-3.353-2-3.353
		c-1.805,0-2.01,2.399-2.01,3.353C902.65,139.242,902.855,141.364,904.66,141.364z"/>
	<path d="M910.854,146.163v-12.284h1.538v1.733c0.41-1.384,1.661-1.907,2.584-1.928h0.031v1.548c0,0-0.145-0.041-0.268-0.041
		c-1.179,0-2.348,0.359-2.348,1.805v9.167H910.854z"/>
	<path d="M916.238,140.503l0.01-1.712c0.031-4.378,1.436-5.188,3.384-5.188c2.226,0,3.097,1.548,3.097,4.86
		c0,0.502,0,0.769-0.021,1.261h-4.922v1.876c0,3.312,0.687,3.804,1.835,3.804c0.79,0,1.61-0.574,1.631-2.922V142.4h1.436v0.062
		c-0.185,2.112-0.748,3.979-3.045,3.979C917.129,146.44,916.197,145.138,916.238,140.503z M917.796,138.965h3.404v-0.021
		c-0.031-1.876,0.205-4.307-1.498-4.307c-1.896,0-1.906,1.487-1.906,4.296V138.965z"/>
	<path d="M924.839,140.503l0.011-1.712c0.03-4.378,1.436-5.188,3.384-5.188c2.225,0,3.097,1.548,3.097,4.86
		c0,0.502,0,0.769-0.021,1.261h-4.922v1.876c0,3.312,0.688,3.804,1.836,3.804c0.789,0,1.609-0.574,1.63-2.922V142.4h1.436v0.062
		c-0.185,2.112-0.749,3.979-3.046,3.979C925.732,146.44,924.798,145.138,924.839,140.503z M926.398,138.965h3.404v-0.021
		c-0.03-1.876,0.205-4.307-1.496-4.307c-1.897,0-1.908,1.487-1.908,4.296V138.965z"/>
	<path d="M933.556,146.163v-12.284h1.538v1.159c0.687-1.005,1.671-1.436,2.604-1.436c1.098,0,2.297,0.943,2.297,2.912v9.649h-1.559
		v-9.68c0-1.302-0.595-1.743-1.303-1.743c-0.635,0-1.425,0.472-2.04,1.241v10.182H933.556z"/>
	<path d="M955.971,144.912v1.405c-0.062,0-0.134-0.01-0.194-0.01c-1.036-0.062-2.021-0.636-2.779-1.518
		c-1.046,0.984-2.328,1.641-3.794,1.641c-2.625,0-3.753-1.477-3.753-3.322c0-1.805,1.025-4.122,2.851-5.599
		c-1.364-2.256-2.112-4.02-2.112-5.394c0-2.266,1.395-3.845,3.619-3.845c2.236,0,3.518,1.374,3.518,3.333
		c0,1.774-1.066,4.04-3.466,6.183l3.292,5.055c0.912-1.21,1.527-2.769,1.527-4.399h1.312c0,1.466-0.77,3.661-2.112,5.383
		C954.546,144.563,955.294,144.912,955.971,144.912z M952.291,143.815l-3.374-5.178c-1.138,1.056-2.03,2.861-2.03,4.317
		c0,1.261,0.666,2.246,2.399,2.246C950.281,145.199,951.367,144.676,952.291,143.815z M949.286,136.658
		c1.548-1.487,2.563-3.435,2.563-5.014c0-1.23-0.595-2.123-2-2.123c-1.619,0-2.102,1.62-2.102,2.656
		C947.748,133.397,948.158,134.761,949.286,136.658z"/>
	<path d="M961.457,143.261v-8.521h-1.671v-0.861h1.671v-4.358h1.539v4.358h1.969v0.861h-1.969v8.449c0,1.241,0.041,2.01,1.045,2.01
		c0.298,0,0.605-0.021,0.902-0.082v1.056c-0.522,0.133-0.943,0.174-1.332,0.174C961.631,146.348,961.457,144.83,961.457,143.261z"/>
	<path d="M967.066,131.069v-1.835h1.538v1.835H967.066z M967.066,146.163v-12.284h1.538v12.284H967.066z"/>
	<path d="M971.095,146.163v-12.284h1.538v1.159c0.687-1.005,1.671-1.436,2.604-1.436c1.098,0,2.297,0.943,2.297,2.912v9.649h-1.559
		v-9.68c0-1.302-0.595-1.743-1.303-1.743c-0.635,0-1.425,0.472-2.04,1.241v10.182H971.095z"/>
	<path d="M980.705,143.261v-8.521h-1.672v-0.861h1.672v-4.358h1.537v4.358h1.969v0.861h-1.969v8.449c0,1.241,0.041,2.01,1.047,2.01
		c0.297,0,0.604-0.021,0.902-0.082v1.056c-0.523,0.133-0.943,0.174-1.334,0.174C980.878,146.348,980.705,144.83,980.705,143.261z"/>
</g>
<g>
	<path d="M867.203,217.909l1.375-0.4c0.215,1.855,1.056,3.682,3.147,3.682c1.61,0,2.513-0.934,2.513-2.554
		c0-1.497-1.088-2.778-2.369-4.132l-2.758-2.902c-1.036-1.098-1.867-2.205-1.867-3.527c0-2.338,1.713-3.805,4.061-3.805
		c2.328,0,3.732,1.354,4.194,3.825l0.03,0.164l-1.312,0.41l-0.02-0.144c-0.257-1.65-1.211-3.004-2.893-3.004
		c-1.496,0-2.553,0.758-2.553,2.348c0,0.994,0.595,1.887,1.445,2.81l2.595,2.819c1.384,1.518,2.933,2.975,2.933,5.004
		c0,2.605-1.805,3.938-4.174,3.938C868.966,222.44,867.572,220.338,867.203,217.909z"/>
	<path d="M877.601,216.339v-0.636c0-2.861,0-6.102,3.25-6.102c3.251,0,3.251,3.24,3.251,6.102v0.636c0,3.087,0,6.101-3.251,6.101
		C877.601,222.44,877.601,219.426,877.601,216.339z M879.139,215.704v0.636c0,3.691,0.276,5.065,1.712,5.065
		s1.713-1.374,1.713-5.065v-0.636c0-3.63-0.215-5.065-1.713-5.065C879.333,210.638,879.139,212.074,879.139,215.704z"/>
	<path d="M886.747,222.164v-17.647h1.538v17.647H886.747z"/>
	<path d="M895.72,222.164l-0.195-1.487c-0.697,1.221-1.795,1.764-2.594,1.764c-1.189,0-2.431-1.015-2.431-2.727
		c0-1.59,0.071-3.076,4.911-5.066v-0.102c-0.01-3.6-0.758-3.907-1.507-3.907c-0.604,0-1.446,0.235-1.569,2.338v0.071h-1.6
		c0.164-2.143,1.323-3.445,3.117-3.445c2.605,0,3.117,2.133,3.117,3.825v5.906c0,1.446,0.186,2.83,0.186,2.83H895.72z
		 M895.412,219.662v-4.327c-2.122,1.467-3.363,2.41-3.363,4.092c0,1.281,0.667,1.732,1.241,1.732
		C894.069,221.159,894.96,220.543,895.412,219.662z"/>
	<path d="M899.564,222.164v-12.284h1.538v1.732c0.41-1.384,1.661-1.906,2.584-1.928h0.03v1.549c0,0-0.143-0.041-0.266-0.041
		c-1.18,0-2.349,0.359-2.349,1.805v9.167H899.564z"/>
	<path d="M905.522,207.07v-1.835h1.538v1.835H905.522z M905.522,222.164v-12.284h1.538v12.284H905.522z"/>
	<path d="M909.019,222.164v-1.477l4.84-9.639h-4.184v-1.169h5.629v1.467l-4.727,9.639h4.666v1.179H909.019z"/>
	<path d="M916.935,216.503l0.01-1.712c0.031-4.379,1.436-5.189,3.384-5.189c2.226,0,3.097,1.549,3.097,4.861
		c0,0.502,0,0.769-0.021,1.261h-4.922v1.876c0,3.312,0.687,3.805,1.835,3.805c0.79,0,1.61-0.574,1.631-2.922v-0.082h1.436v0.061
		c-0.185,2.113-0.748,3.979-3.045,3.979C917.827,222.44,916.894,221.138,916.935,216.503z M918.494,214.965h3.404v-0.021
		c-0.031-1.876,0.205-4.307-1.498-4.307c-1.896,0-1.906,1.487-1.906,4.296V214.965z"/>
	<path d="M930.531,222.164v-1.159c-0.718,1.118-1.713,1.436-2.481,1.436c-1.138,0-2.595-0.563-2.595-5.875v-0.975
		c0-5.506,1.457-5.988,2.707-5.988c0.842,0,1.713,0.473,2.369,1.436v-6.521h1.538v17.647H930.531z M930.531,220.061v-8.1
		c-0.636-0.708-1.333-1.221-2.061-1.221c-0.749,0-1.477,0.215-1.477,4.86v0.974c0,4.604,0.748,4.728,1.527,4.728
		C929.146,221.302,929.925,220.79,930.531,220.061z"/>
	<path d="M938.489,222.164v-17.647h3.968c3.426,0,4.502,2.338,4.502,5.261v7.178c0,2.851-0.994,5.209-4.502,5.209H938.489z
		 M940.047,220.913h2.409c2.297,0,2.943-1.641,2.943-3.609v-7.875c0-2.03-0.646-3.66-2.943-3.66h-2.409V220.913z"/>
	<path d="M954.156,222.164l-0.194-1.487c-0.697,1.221-1.794,1.764-2.595,1.764c-1.189,0-2.43-1.015-2.43-2.727
		c0-1.59,0.072-3.076,4.912-5.066v-0.102c-0.011-3.6-0.76-3.907-1.508-3.907c-0.605,0-1.445,0.235-1.568,2.338v0.071h-1.6
		c0.164-2.143,1.322-3.445,3.117-3.445c2.604,0,3.117,2.133,3.117,3.825v5.906c0,1.446,0.184,2.83,0.184,2.83H954.156z
		 M953.849,219.662v-4.327c-2.123,1.467-3.363,2.41-3.363,4.092c0,1.281,0.666,1.732,1.24,1.732
		C952.505,221.159,953.398,220.543,953.849,219.662z"/>
	<path d="M958.001,222.164v-12.284h1.538v1.732c0.41-1.384,1.661-1.906,2.584-1.928h0.03v1.549c0,0-0.143-0.041-0.266-0.041
		c-1.18,0-2.349,0.359-2.349,1.805v9.167H958.001z"/>
	<path d="M963.835,222.164v-17.647h1.538v11.188l3.835-5.824h1.732l-2.942,4.655l2.923,7.629h-1.61l-2.409-6.696l-1.528,1.877v4.819
		H963.835z"/>
</g>
<rect x="219.965" y="19.164" fill="#FFFFFF" stroke="#000000" stroke-miterlimit="10" width="70" height="71"/>
<rect x="220.965" y="107.164" fill="#007F00" stroke="#000000" stroke-miterlimit="10" width="70" height="71"/>
<rect x="221.965" y="190.164" fill="#002B36" stroke="#000000" stroke-miterlimit="10" width="70" height="71"/>
<g>
	<path d="M37.12,48.871l0.156,4.42c4.333-3.362,8.32-5.044,11.96-5.044c4.506,0,6.76,2.288,6.76,6.864v18.824h-2.08V55.527
		c0-1.872-0.416-3.241-1.248-4.108c-0.832-0.866-2.132-1.3-3.9-1.3c-1.699,0-3.372,0.373-5.018,1.118
		c-1.647,0.746-3.736,1.968-6.266,3.666v19.032h-2.028V48.871H37.12z"/>
	<path d="M79.447,62.443H66.083c0.138,3.814,0.936,6.474,2.392,7.982c1.456,1.508,3.813,2.262,7.072,2.262
		c2.877,0,5.737-0.208,8.58-0.624l0.26,1.456c-2.08,0.693-5.114,1.04-9.1,1.04c-4.056,0-6.968-1.014-8.736-3.042
		s-2.652-5.434-2.652-10.218s0.84-8.155,2.522-10.114c1.681-1.958,4.498-2.938,8.45-2.938c6.621,0,9.984,2.462,10.088,7.384
		c0.069,2.288-0.338,3.996-1.222,5.122C82.853,61.88,81.422,62.443,79.447,62.443z M66.083,60.727h13.052
		c2.565,0,3.796-1.664,3.692-4.992c-0.035-1.941-0.685-3.362-1.95-4.264c-1.266-0.901-3.233-1.352-5.902-1.352
		c-3.259,0-5.547,0.78-6.864,2.34C66.793,54.019,66.117,56.775,66.083,60.727z"/>
	<path d="M94.032,51.211c1.681-1.976,4.567-2.964,8.658-2.964c4.09,0,6.976,0.988,8.658,2.964c1.681,1.976,2.522,5.374,2.522,10.192
		c0,4.819-0.832,8.216-2.496,10.192s-4.559,2.964-8.684,2.964c-4.126,0-7.02-0.988-8.684-2.964s-2.496-5.373-2.496-10.192
		C91.51,56.585,92.35,53.187,94.032,51.211z M109.736,52.563c-1.335-1.629-3.684-2.444-7.046-2.444c-3.363,0-5.703,0.815-7.02,2.444
		c-1.318,1.63-1.976,4.576-1.976,8.84s0.658,7.22,1.976,8.866c1.317,1.647,3.657,2.47,7.02,2.47c3.362,0,5.711-0.823,7.046-2.47
		c1.334-1.646,2.002-4.602,2.002-8.866S111.07,54.193,109.736,52.563z"/>
	<path d="M122.449,51.419h0.728c0.624,0,0.936,0.295,0.936,0.884v3.172c0,0.59-0.312,0.884-0.936,0.884h-0.728
		c-0.59,0-0.884-0.294-0.884-0.884v-3.172C121.565,51.714,121.859,51.419,122.449,51.419z M122.449,69.047h0.728
		c0.624,0,0.936,0.295,0.936,0.884v3.12c0,0.59-0.312,0.884-0.936,0.884h-0.728c-0.59,0-0.884-0.294-0.884-0.884v-3.12
		C121.565,69.342,121.859,69.047,122.449,69.047z"/>
	<path d="M153.7,48.871l-9.984,24.492c-0.208,0.382-0.52,0.572-0.936,0.572h-2.08c-0.416,0-0.711-0.19-0.884-0.572l-9.984-24.492
		h2.236l7.488,18.771c0.208,0.486,0.52,1.248,0.936,2.288s0.728,1.82,0.936,2.34h0.676l1.924-4.68l7.436-18.72H153.7z"/>
	<path d="M160.563,38.419h0.936c0.52,0,0.78,0.278,0.78,0.832v3.12c0,0.555-0.26,0.832-0.78,0.832h-0.936
		c-0.555,0-0.832-0.277-0.832-0.832v-3.12C159.731,38.697,160.008,38.419,160.563,38.419z M162.02,73.935h-2.028V48.871h2.028
		V73.935z"/>
	<path d="M173.25,48.871l0.208,4.42c3.848-3.362,7.488-5.044,10.92-5.044c3.64,0,5.754,1.664,6.344,4.992
		c3.848-3.328,7.47-4.992,10.868-4.992c4.333,0,6.5,2.288,6.5,6.864v18.824h-2.028V55.527c-0.035-3.605-1.734-5.408-5.096-5.408
		c-1.526,0-3.016,0.364-4.472,1.092s-3.328,1.959-5.616,3.692v0.208v18.824h-2.028V55.527c0-3.605-1.699-5.408-5.096-5.408
		c-1.491,0-2.973,0.364-4.446,1.092c-1.474,0.728-3.354,1.959-5.642,3.692v19.032h-2.028V48.871H173.25z"/>
</g>
<g>
	<path fill="#007F00" d="M37.119,137.428l0.156,4.42c4.333-3.362,8.32-5.044,11.96-5.044c4.506,0,6.76,2.288,6.76,6.864v18.824
		h-2.08v-18.408c0-1.872-0.416-3.241-1.248-4.108c-0.832-0.866-2.132-1.3-3.9-1.3c-1.699,0-3.372,0.373-5.018,1.118
		c-1.647,0.746-3.736,1.968-6.266,3.666v19.032h-2.028v-25.063H37.119z"/>
	<path fill="#007F00" d="M79.446,151H66.082c0.138,3.814,0.936,6.474,2.392,7.982c1.456,1.508,3.813,2.262,7.072,2.262
		c2.877,0,5.737-0.208,8.58-0.624l0.26,1.456c-2.08,0.693-5.114,1.04-9.1,1.04c-4.056,0-6.968-1.014-8.736-3.042
		s-2.652-5.434-2.652-10.218s0.84-8.155,2.522-10.114c1.681-1.958,4.498-2.938,8.45-2.938c6.621,0,9.984,2.462,10.088,7.384
		c0.069,2.288-0.338,3.996-1.222,5.122C82.852,150.437,81.422,151,79.446,151z M66.082,149.284h13.052
		c2.565,0,3.796-1.664,3.692-4.992c-0.035-1.941-0.685-3.362-1.95-4.264c-1.266-0.901-3.233-1.352-5.902-1.352
		c-3.259,0-5.547,0.78-6.864,2.34C66.792,142.576,66.117,145.332,66.082,149.284z"/>
	<path fill="#007F00" d="M94.032,139.768c1.681-1.976,4.567-2.964,8.658-2.964c4.09,0,6.976,0.988,8.658,2.964
		c1.681,1.976,2.522,5.374,2.522,10.192c0,4.819-0.832,8.216-2.496,10.192s-4.559,2.964-8.684,2.964
		c-4.126,0-7.02-0.988-8.684-2.964s-2.496-5.373-2.496-10.192C91.51,145.142,92.35,141.744,94.032,139.768z M109.735,141.12
		c-1.335-1.629-3.684-2.444-7.046-2.444c-3.363,0-5.703,0.815-7.02,2.444c-1.318,1.63-1.976,4.576-1.976,8.84
		s0.658,7.22,1.976,8.866c1.317,1.647,3.657,2.47,7.02,2.47c3.362,0,5.711-0.823,7.046-2.47c1.334-1.646,2.002-4.602,2.002-8.866
		S111.069,142.75,109.735,141.12z"/>
	<path fill="#007F00" d="M122.449,139.976h0.728c0.624,0,0.936,0.295,0.936,0.884v3.172c0,0.59-0.312,0.884-0.936,0.884h-0.728
		c-0.59,0-0.884-0.294-0.884-0.884v-3.172C121.564,140.271,121.859,139.976,122.449,139.976z M122.449,157.604h0.728
		c0.624,0,0.936,0.295,0.936,0.884v3.12c0,0.59-0.312,0.884-0.936,0.884h-0.728c-0.59,0-0.884-0.294-0.884-0.884v-3.12
		C121.564,157.898,121.859,157.604,122.449,157.604z"/>
	<path fill="#007F00" d="M153.7,137.428l-9.984,24.492c-0.208,0.382-0.52,0.572-0.936,0.572h-2.08c-0.416,0-0.711-0.19-0.884-0.572
		l-9.984-24.492h2.236l7.488,18.771c0.208,0.486,0.52,1.248,0.936,2.288s0.728,1.82,0.936,2.34h0.676l1.924-4.68l7.436-18.72H153.7z
		"/>
	<path fill="#007F00" d="M160.563,126.976h0.936c0.52,0,0.78,0.278,0.78,0.832v3.12c0,0.555-0.26,0.832-0.78,0.832h-0.936
		c-0.555,0-0.832-0.277-0.832-0.832v-3.12C159.731,127.254,160.008,126.976,160.563,126.976z M162.019,162.491h-2.028v-25.063h2.028
		V162.491z"/>
	<path fill="#007F00" d="M173.25,137.428l0.208,4.42c3.848-3.362,7.488-5.044,10.92-5.044c3.64,0,5.754,1.664,6.344,4.992
		c3.848-3.328,7.47-4.992,10.868-4.992c4.333,0,6.5,2.288,6.5,6.864v18.824h-2.028v-18.408c-0.035-3.605-1.734-5.408-5.096-5.408
		c-1.526,0-3.016,0.364-4.472,1.092s-3.328,1.959-5.616,3.692v0.208v18.824h-2.028v-18.408c0-3.605-1.699-5.408-5.096-5.408
		c-1.491,0-2.973,0.364-4.446,1.092c-1.474,0.728-3.354,1.959-5.642,3.692v19.032h-2.028v-25.063H173.25z"/>
</g>
<g>
	<path fill="#859900" d="M37.119,218.428l0.156,4.42c4.333-3.362,8.32-5.044,11.96-5.044c4.506,0,6.76,2.288,6.76,6.863v18.824
		h-2.08v-18.408c0-1.872-0.416-3.24-1.248-4.107c-0.832-0.866-2.132-1.3-3.9-1.3c-1.699,0-3.372,0.373-5.018,1.117
		c-1.647,0.746-3.736,1.969-6.266,3.666v19.032h-2.028v-25.063H37.119z"/>
	<path fill="#859900" d="M79.446,232H66.082c0.138,3.814,0.936,6.474,2.392,7.982c1.456,1.508,3.813,2.262,7.072,2.262
		c2.877,0,5.737-0.208,8.58-0.624l0.26,1.456c-2.08,0.692-5.114,1.04-9.1,1.04c-4.056,0-6.968-1.015-8.736-3.042
		c-1.768-2.028-2.652-5.435-2.652-10.218c0-4.784,0.84-8.155,2.522-10.114c1.681-1.958,4.498-2.938,8.45-2.938
		c6.621,0,9.984,2.462,10.088,7.384c0.069,2.288-0.338,3.996-1.222,5.122C82.852,231.437,81.422,232,79.446,232z M66.082,230.284
		h13.052c2.565,0,3.796-1.664,3.692-4.992c-0.035-1.94-0.685-3.361-1.95-4.264c-1.266-0.901-3.233-1.352-5.902-1.352
		c-3.259,0-5.547,0.779-6.864,2.34C66.792,223.576,66.117,226.332,66.082,230.284z"/>
	<path fill="#859900" d="M94.032,220.768c1.681-1.977,4.567-2.964,8.658-2.964c4.09,0,6.976,0.987,8.658,2.964
		c1.681,1.976,2.522,5.374,2.522,10.191c0,4.819-0.832,8.216-2.496,10.192c-1.664,1.976-4.559,2.964-8.684,2.964
		c-4.126,0-7.02-0.988-8.684-2.964c-1.664-1.977-2.496-5.373-2.496-10.192C91.51,226.142,92.35,222.744,94.032,220.768z
		 M109.735,222.12c-1.335-1.629-3.684-2.443-7.046-2.443c-3.363,0-5.703,0.814-7.02,2.443c-1.318,1.63-1.976,4.576-1.976,8.84
		s0.658,7.22,1.976,8.866c1.317,1.646,3.657,2.47,7.02,2.47c3.362,0,5.711-0.823,7.046-2.47c1.334-1.646,2.002-4.603,2.002-8.866
		S111.069,223.75,109.735,222.12z"/>
	<path fill="#859900" d="M122.449,220.976h0.728c0.624,0,0.936,0.295,0.936,0.884v3.172c0,0.59-0.312,0.884-0.936,0.884h-0.728
		c-0.59,0-0.884-0.294-0.884-0.884v-3.172C121.564,221.271,121.859,220.976,122.449,220.976z M122.449,238.604h0.728
		c0.624,0,0.936,0.295,0.936,0.884v3.12c0,0.59-0.312,0.884-0.936,0.884h-0.728c-0.59,0-0.884-0.294-0.884-0.884v-3.12
		C121.564,238.899,121.859,238.604,122.449,238.604z"/>
	<path fill="#859900" d="M153.7,218.428l-9.984,24.491c-0.208,0.382-0.52,0.572-0.936,0.572h-2.08c-0.416,0-0.711-0.19-0.884-0.572
		l-9.984-24.491h2.236l7.488,18.771c0.208,0.485,0.52,1.248,0.936,2.288s0.728,1.819,0.936,2.34h0.676l1.924-4.68l7.436-18.72H153.7
		z"/>
	<path fill="#859900" d="M160.563,207.976h0.936c0.52,0,0.78,0.278,0.78,0.832v3.12c0,0.555-0.26,0.832-0.78,0.832h-0.936
		c-0.555,0-0.832-0.277-0.832-0.832v-3.12C159.731,208.254,160.008,207.976,160.563,207.976z M162.019,243.492h-2.028v-25.063h2.028
		V243.492z"/>
	<path fill="#859900" d="M173.25,218.428l0.208,4.42c3.848-3.362,7.488-5.044,10.92-5.044c3.64,0,5.754,1.664,6.344,4.991
		c3.848-3.327,7.47-4.991,10.868-4.991c4.333,0,6.5,2.288,6.5,6.863v18.824h-2.028v-18.408c-0.035-3.604-1.734-5.407-5.096-5.407
		c-1.526,0-3.016,0.363-4.472,1.092c-1.456,0.728-3.328,1.959-5.616,3.691v0.208v18.824h-2.028v-18.408
		c0-3.604-1.699-5.407-5.096-5.407c-1.491,0-2.973,0.363-4.446,1.092c-1.474,0.728-3.354,1.959-5.642,3.691v19.032h-2.028v-25.063
		H173.25z"/>
</g>
<g>
	<path d="M254.889,44.41h0.894c0.765,0,1.148,0.362,1.148,1.084v3.892c0,0.724-0.383,1.084-1.148,1.084h-0.894
		c-0.724,0-1.084-0.361-1.084-1.084v-3.892C253.805,44.772,254.165,44.41,254.889,44.41z M254.889,66.036h0.894
		c0.765,0,1.148,0.362,1.148,1.084v3.828c0,0.724-0.383,1.084-1.148,1.084h-0.894c-0.724,0-1.084-0.361-1.084-1.084v-3.828
		C253.805,66.398,254.165,66.036,254.889,66.036z"/>
</g>
<g>
	<path fill="#CCE5CC" d="M255.868,133.125h0.894c0.765,0,1.148,0.362,1.148,1.084v3.892c0,0.724-0.383,1.084-1.148,1.084h-0.894
		c-0.724,0-1.084-0.361-1.084-1.084v-3.892C254.783,133.486,255.144,133.125,255.868,133.125z M255.868,154.751h0.894
		c0.765,0,1.148,0.362,1.148,1.084v3.828c0,0.724-0.383,1.084-1.148,1.084h-0.894c-0.724,0-1.084-0.361-1.084-1.084v-3.828
		C254.783,155.113,255.144,154.751,255.868,154.751z"/>
</g>
<g>
	<path fill="#859900" d="M256.868,216.125h0.894c0.765,0,1.148,0.362,1.148,1.085v3.892c0,0.724-0.383,1.084-1.148,1.084h-0.894
		c-0.724,0-1.084-0.36-1.084-1.084v-3.892C255.783,216.487,256.144,216.125,256.868,216.125z M256.868,237.751h0.894
		c0.765,0,1.148,0.361,1.148,1.084v3.828c0,0.724-0.383,1.084-1.148,1.084h-0.894c-0.724,0-1.084-0.36-1.084-1.084v-3.828
		C255.783,238.113,256.144,237.751,256.868,237.751z"/>
</g>
</svg>
